<?xml version="1.0" encoding="utf-8"?>
<!-- Generator: Adobe Illustrator 16.0.0, SVG Export Plug-In . SVG Version: 6.00 Build 0)  -->
<!DOCTYPE svg PUBLIC "-//W3C//DTD SVG 1.1//EN" "http://www.w3.org/Graphics/SVG/1.1/DTD/svg11.dtd">
<svg version="1.1" id="Layer_1" xmlns="http://www.w3.org/2000/svg" xmlns:xlink="http://www.w3.org/1999/xlink" x="0px" y="0px"
	 width="203px" height="46px" viewBox="0 0 203 46" enable-background="new 0 0 203 46" xml:space="preserve">
<g>
	<path fill="#FFFFFF" d="M11.833,27.325l-1.972,3.712v12.47h-6.38V2.908h6.38v17.689l8.352-17.689h6.38l-8.874,18.095l8.874,22.504
		h-6.554L11.833,27.325z"/>
	<path fill="#FFFFFF" d="M32.037,32.37L25.364,9.904h5.521l4.032,15.313L38.95,9.904h5.041L37.317,32.37v11.137h-5.28V32.37z"/>
	<path fill="#FFFFFF" d="M46.101,9.904h5.28v28.802h8.688v4.801H46.101V9.904z"/>
	<path fill="#FFFFFF" d="M67.652,24.065h7.249v4.8h-7.249v9.841h9.121v4.801H62.372V9.904h14.401v4.8h-9.121V24.065z"/>
	<path fill="#FFFFFF" d="M96.459,2.443c6.206,0,9.396,3.712,9.396,10.208v1.276h-6.032v-1.683c0-2.899-1.16-4.002-3.19-4.002
		c-2.03,0-3.19,1.103-3.19,4.002c0,8.353,12.47,9.918,12.47,21.518c0,6.496-3.248,10.208-9.512,10.208s-9.512-3.712-9.512-10.208
		V31.27h6.032v2.899c0,2.9,1.276,3.944,3.306,3.944c2.03,0,3.306-1.044,3.306-3.944c0-8.352-12.47-9.918-12.47-21.518
		C87.063,6.155,90.253,2.443,96.459,2.443z"/>
	<path fill="#FFFFFF" d="M126.257,43.507h-5.329l-0.912-6.097h-6.48l-0.912,6.097h-4.849l5.376-33.603h7.729L126.257,43.507z
		 M114.208,32.85h5.088l-2.544-16.993L114.208,32.85z"/>
	<path fill="#FFFFFF" d="M139.744,43.507c-0.288-0.864-0.48-1.393-0.48-4.128v-5.281c0-3.12-1.056-4.272-3.456-4.272h-1.824v13.682
		h-5.28V9.904h7.968c5.473,0,7.825,2.544,7.825,7.729v2.64c0,3.457-1.104,5.713-3.456,6.817c2.64,1.104,3.505,3.647,3.505,7.152
		v5.185c0,1.632,0.047,2.832,0.575,4.08H139.744z M133.983,14.704v10.321h2.064c1.968,0,3.168-0.864,3.168-3.553v-3.312
		c0-2.4-0.816-3.457-2.688-3.457H133.983z"/>
	<path fill="#FFFFFF" d="M155.871,37.314l4.033-27.41h4.848l-5.185,33.603h-7.872L146.51,9.904h5.329L155.871,37.314z"/>
	<path fill="#FFFFFF" d="M183.088,43.507h-5.328l-0.912-6.097h-6.48l-0.912,6.097h-4.849l5.376-33.603h7.729L183.088,43.507z
		 M171.039,32.85h5.088l-2.543-16.993L171.039,32.85z"/>
	<path fill="#FFFFFF" d="M192.639,9.52c5.137,0,7.777,3.072,7.777,8.449v1.056h-4.993v-1.392c0-2.4-0.96-3.313-2.64-3.313
		c-1.681,0-2.641,0.912-2.641,3.313c0,6.912,10.321,8.208,10.321,17.81c0,5.376-2.688,8.448-7.873,8.448s-7.872-3.072-7.872-8.448
		v-2.064h4.992v2.4c0,2.4,1.056,3.264,2.736,3.264c1.68,0,2.736-0.863,2.736-3.264c0-6.913-10.321-8.209-10.321-17.81
		C184.862,12.592,187.503,9.52,192.639,9.52z"/>
</g>
<g display="none">
	<path display="inline" fill="#FFFFFF" d="M-70.662,150.318l-1.972,3.712v12.47h-6.38v-40.599h6.38v17.689l8.352-17.689h6.38
		l-8.874,18.095l8.874,22.504h-6.554L-70.662,150.318z"/>
	<path display="inline" fill="#FFFFFF" d="M-50.458,155.363l-6.673-22.466h5.521l4.032,15.313l4.033-15.313h5.041l-6.673,22.466
		V166.5h-5.28V155.363z"/>
	<path display="inline" fill="#FFFFFF" d="M-36.394,132.897h5.28v28.802h8.688v4.801h-13.969V132.897z"/>
	<path display="inline" fill="#FFFFFF" d="M-14.842,147.059h7.249v4.8h-7.249v9.841h9.121v4.801h-14.401v-33.603h14.401v4.8h-9.121
		V147.059z"/>
	<path display="inline" fill="#FFFFFF" d="M13.964,125.437c6.206,0,9.396,3.712,9.396,10.208v1.276h-6.032v-1.683
		c0-2.899-1.16-4.002-3.19-4.002c-2.03,0-3.19,1.103-3.19,4.002c0,8.353,12.47,9.918,12.47,21.518
		c0,6.496-3.248,10.208-9.512,10.208s-9.512-3.712-9.512-10.208v-2.493h6.032v2.899c0,2.9,1.276,3.944,3.306,3.944
		c2.03,0,3.306-1.044,3.306-3.944c0-8.352-12.47-9.918-12.47-21.518C4.568,129.148,7.758,125.437,13.964,125.437z"/>
	<path display="inline" fill="#FFFFFF" d="M43.762,166.5h-5.329l-0.912-6.097h-6.48l-0.912,6.097H25.28l5.376-33.603h7.729
		L43.762,166.5z M31.713,155.843h5.088l-2.544-16.993L31.713,155.843z"/>
	<path display="inline" fill="#FFFFFF" d="M57.249,166.5c-0.288-0.864-0.48-1.393-0.48-4.128v-5.281c0-3.12-1.056-4.272-3.456-4.272
		h-1.824V166.5h-5.28v-33.603h7.968c5.473,0,7.825,2.544,7.825,7.729v2.64c0,3.457-1.104,5.713-3.456,6.817
		c2.64,1.104,3.504,3.647,3.504,7.152v5.185c0,1.632,0.048,2.832,0.576,4.08H57.249z M51.489,137.697v10.321h2.064
		c1.968,0,3.168-0.864,3.168-3.553v-3.312c0-2.4-0.816-3.457-2.688-3.457H51.489z"/>
	<path display="inline" fill="#FFFFFF" d="M73.376,160.308l4.033-27.41h4.848L77.073,166.5H69.2l-5.185-33.603h5.329L73.376,160.308
		z"/>
	<path display="inline" fill="#FFFFFF" d="M100.594,166.5h-5.329l-0.912-6.097h-6.48L86.96,166.5h-4.849l5.376-33.603h7.729
		L100.594,166.5z M88.544,155.843h5.088l-2.544-16.993L88.544,155.843z"/>
	<path display="inline" fill="#FFFFFF" d="M110.144,132.513c5.137,0,7.777,3.072,7.777,8.449v1.056h-4.993v-1.392
		c0-2.4-0.96-3.313-2.64-3.313c-1.681,0-2.641,0.912-2.641,3.313c0,6.912,10.321,8.208,10.321,17.81
		c0,5.376-2.688,8.448-7.873,8.448s-7.873-3.072-7.873-8.448v-2.064h4.993v2.4c0,2.4,1.056,3.264,2.736,3.264
		c1.68,0,2.736-0.863,2.736-3.264c0-6.913-10.321-8.209-10.321-17.81C102.368,135.585,105.008,132.513,110.144,132.513z"/>
	<path display="inline" opacity="0.5" fill="#FFFFFF" d="M134.502,128.323v42.553h-2.304v-42.553H134.502z"/>
	<path display="inline" opacity="0.5" fill="#FFFFFF" d="M160.674,147.558v3.221h-7.867v11.455h9.662v3.267h-13.25v-32.204h13.25
		v3.267h-9.662v10.995H160.674z"/>
	<path display="inline" opacity="0.5" fill="#FFFFFF" d="M167.861,165.5h-2.52v-25.197h3.564l5.83,18.214v-18.214h2.484V165.5
		h-2.916l-6.443-20.373V165.5z"/>
	<path display="inline" opacity="0.5" fill="#FFFFFF" d="M182.225,140.303l4.104,21.922l4.068-21.922h2.592l-4.717,25.197h-4.139
		l-4.752-25.197H182.225z"/>
	<path display="inline" opacity="0.5" fill="#FFFFFF" d="M197.957,140.303V165.5h-2.807v-25.197H197.957z"/>
	<path display="inline" opacity="0.5" fill="#FFFFFF" d="M206.453,140.303c3.959,0,5.615,2.017,5.615,5.76v2.052
		c0,2.771-0.973,4.499-3.131,5.184c2.303,0.684,3.166,2.556,3.166,5.255v3.924c0,1.115,0.037,2.159,0.504,3.023h-2.844
		c-0.322-0.72-0.467-1.368-0.467-3.06v-3.96c0-2.843-1.332-3.743-3.672-3.743h-1.98V165.5h-2.807v-25.197H206.453z M205.732,152.182
		c2.232,0,3.564-0.72,3.564-3.455v-2.412c0-2.268-0.828-3.456-2.916-3.456h-2.736v9.323H205.732z"/>
	<path display="inline" opacity="0.5" fill="#FFFFFF" d="M214.805,146.387c0-3.852,1.908-6.336,5.76-6.336
		c3.889,0,5.795,2.484,5.795,6.336v13.03c0,3.815-1.906,6.335-5.795,6.335c-3.852,0-5.76-2.52-5.76-6.335V146.387z M217.576,159.561
		c0,2.304,0.973,3.636,2.988,3.636c2.053,0,2.988-1.332,2.988-3.636v-13.318c0-2.268-0.936-3.636-2.988-3.636
		c-2.016,0-2.988,1.368-2.988,3.636V159.561z"/>
	<path display="inline" opacity="0.5" fill="#FFFFFF" d="M231.51,165.5h-2.52v-25.197h3.563l5.832,18.214v-18.214h2.482V165.5
		h-2.916l-6.441-20.373V165.5z"/>
	<path display="inline" opacity="0.5" fill="#FFFFFF" d="M253.035,165.464h-2.699l-4.176-20.05V165.5h-2.447v-25.197h3.924
		l4.139,20.122l3.996-20.122h3.924V165.5h-2.664v-20.266L253.035,165.464z"/>
	<path display="inline" opacity="0.5" fill="#FFFFFF" d="M271.539,151.462v2.52h-6.154v8.963h7.559v2.556h-10.367v-25.197h10.367
		v2.556h-7.559v8.604H271.539z"/>
	<path display="inline" opacity="0.5" fill="#FFFFFF" d="M278.02,165.5h-2.52v-25.197h3.564l5.83,18.214v-18.214h2.484V165.5h-2.916
		l-6.443-20.373V165.5z"/>
	<path display="inline" opacity="0.5" fill="#FFFFFF" d="M293.932,165.5v-22.642h-4.645v-2.556h12.096v2.556h-4.645V165.5H293.932z"
		/>
	<path display="inline" opacity="0.5" fill="#FFFFFF" d="M312.943,159.014l-1.242,6.486h-3.313l6.164-32.204h5.199l6.164,32.204
		h-3.588l-1.242-6.486H312.943z M313.402,155.931h7.178l-3.635-18.586L313.402,155.931z"/>
	<path display="inline" opacity="0.5" fill="#FFFFFF" d="M333.934,140.303c3.961,0,5.615,2.017,5.615,5.76v2.052
		c0,2.771-0.971,4.499-3.131,5.184c2.305,0.684,3.168,2.556,3.168,5.255v3.924c0,1.115,0.035,2.159,0.504,3.023h-2.844
		c-0.324-0.72-0.469-1.368-0.469-3.06v-3.96c0-2.843-1.33-3.743-3.67-3.743h-1.98V165.5h-2.809v-25.197H333.934z M333.215,152.182
		c2.232,0,3.563-0.72,3.563-3.455v-2.412c0-2.268-0.826-3.456-2.914-3.456h-2.736v9.323H333.215z"/>
	<path display="inline" opacity="0.5" fill="#FFFFFF" d="M346.176,165.5v-22.642h-4.645v-2.556h12.096v2.556h-4.645V165.5H346.176z"
		/>
	<path display="inline" opacity="0.5" fill="#FFFFFF" d="M358.379,140.303V165.5h-2.809v-25.197H358.379z"/>
	<path display="inline" opacity="0.5" fill="#FFFFFF" d="M372.166,146.351v0.684h-2.664v-0.828c0-2.268-0.863-3.6-2.881-3.6
		c-2.016,0-2.879,1.332-2.879,3.564c0,5.65,8.459,6.19,8.459,13.282c0,3.815-1.836,6.299-5.688,6.299s-5.65-2.483-5.65-6.299v-1.44
		h2.627v1.584c0,2.268,0.936,3.6,2.951,3.6s2.953-1.332,2.953-3.6c0-5.615-8.424-6.155-8.424-13.246c0-3.888,1.799-6.3,5.58-6.3
		C370.365,140.051,372.166,142.535,372.166,146.351z"/>
	<path display="inline" opacity="0.5" fill="#FFFFFF" d="M378.322,165.5v-22.642h-4.645v-2.556h12.096v2.556h-4.645V165.5H378.322z"
		/>
</g>
<g>
</g>
<g>
</g>
<g>
</g>
<g>
</g>
<g>
</g>
<g>
</g>
<g>
</g>
<g>
</g>
<g>
</g>
<g>
</g>
<g>
</g>
<g>
</g>
<g>
</g>
<g>
</g>
<g>
</g>
</svg>
