<?xml version="1.0" encoding="utf-8"?>
<!-- Generator: Adobe Illustrator 16.0.0, SVG Export Plug-In . SVG Version: 6.00 Build 0)  -->
<!DOCTYPE svg PUBLIC "-//W3C//DTD SVG 1.1//EN" "http://www.w3.org/Graphics/SVG/1.1/DTD/svg11.dtd">
<svg version="1.1" id="Layer_1" xmlns="http://www.w3.org/2000/svg" xmlns:xlink="http://www.w3.org/1999/xlink" x="0px" y="0px"
	 width="240.583px" height="36.5px" viewBox="0 0 240.583 36.5" enable-background="new 0 0 240.583 36.5" xml:space="preserve">
<g display="none">
	<path display="inline" fill="#FFFFFF" d="M12.167,24.825l-1.972,3.712v12.47h-6.38V0.408h6.38v17.689l8.352-17.689h6.38
		l-8.874,18.095l8.874,22.504h-6.554L12.167,24.825z"/>
	<path display="inline" fill="#FFFFFF" d="M32.371,29.87L25.698,7.404h5.521l4.032,15.313l4.033-15.313h5.041L37.651,29.87v11.137
		h-5.28V29.87z"/>
	<path display="inline" fill="#FFFFFF" d="M46.434,7.404h5.28v28.802h8.688v4.801H46.434V7.404z"/>
	<path display="inline" fill="#FFFFFF" d="M67.986,21.565h7.249v4.8h-7.249v9.841h9.121v4.801H62.706V7.404h14.401v4.8h-9.121
		V21.565z"/>
	<path display="inline" fill="#FFFFFF" d="M96.792-0.057c6.206,0,9.396,3.712,9.396,10.208v1.276h-6.032V9.745
		c0-2.899-1.16-4.002-3.19-4.002c-2.03,0-3.19,1.103-3.19,4.002c0,8.353,12.47,9.918,12.47,21.518
		c0,6.496-3.248,10.208-9.512,10.208s-9.512-3.712-9.512-10.208V28.77h6.032v2.899c0,2.9,1.276,3.944,3.306,3.944
		c2.03,0,3.306-1.044,3.306-3.944c0-8.352-12.47-9.918-12.47-21.518C87.396,3.655,90.586-0.057,96.792-0.057z"/>
	<path display="inline" fill="#FFFFFF" d="M126.59,41.007h-5.329l-0.912-6.097h-6.48l-0.912,6.097h-4.849l5.376-33.603h7.729
		L126.59,41.007z M114.541,30.35h5.088l-2.544-16.993L114.541,30.35z"/>
	<path display="inline" fill="#FFFFFF" d="M140.077,41.007c-0.288-0.864-0.48-1.393-0.48-4.128v-5.281
		c0-3.12-1.056-4.272-3.456-4.272h-1.824v13.682h-5.28V7.404h7.968c5.473,0,7.825,2.544,7.825,7.729v2.64
		c0,3.457-1.104,5.713-3.456,6.817c2.64,1.104,3.505,3.647,3.505,7.152v5.185c0,1.632,0.047,2.832,0.575,4.08H140.077z
		 M134.317,12.204v10.321h2.064c1.968,0,3.168-0.864,3.168-3.553v-3.312c0-2.4-0.816-3.457-2.688-3.457H134.317z"/>
	<path display="inline" fill="#FFFFFF" d="M156.205,34.814l4.033-27.41h4.848l-5.185,33.603h-7.872l-5.186-33.603h5.329
		L156.205,34.814z"/>
	<path display="inline" fill="#FFFFFF" d="M183.421,41.007h-5.328l-0.912-6.097h-6.48l-0.912,6.097h-4.849l5.376-33.603h7.729
		L183.421,41.007z M171.373,30.35h5.088l-2.543-16.993L171.373,30.35z"/>
	<path display="inline" fill="#FFFFFF" d="M192.972,7.02c5.137,0,7.777,3.072,7.777,8.449v1.056h-4.993v-1.392
		c0-2.4-0.96-3.313-2.64-3.313c-1.681,0-2.641,0.912-2.641,3.313c0,6.912,10.321,8.208,10.321,17.81
		c0,5.376-2.688,8.448-7.873,8.448s-7.872-3.072-7.872-8.448v-2.064h4.992v2.4c0,2.4,1.056,3.264,2.736,3.264
		c1.68,0,2.736-0.863,2.736-3.264c0-6.913-10.321-8.209-10.321-17.81C185.196,10.092,187.836,7.02,192.972,7.02z"/>
</g>
<g>
	<path opacity="0.5" fill="#FFFFFF" d="M13.295,16.558v3.221H5.429v11.455h9.661V34.5H1.84V2.296h13.25v3.267H5.429v10.995H13.295z"
		/>
	<path opacity="0.5" fill="#FFFFFF" d="M20.483,34.5h-2.52V9.303h3.563l5.832,18.214V9.303h2.483V34.5h-2.916l-6.443-20.373V34.5z"
		/>
	<path opacity="0.5" fill="#FFFFFF" d="M34.847,9.303l4.104,21.922l4.067-21.922h2.592L40.894,34.5h-4.14L32.003,9.303H34.847z"/>
	<path opacity="0.5" fill="#FFFFFF" d="M50.579,9.303V34.5h-2.808V9.303H50.579z"/>
	<path opacity="0.5" fill="#FFFFFF" d="M59.074,9.303c3.959,0,5.615,2.017,5.615,5.76v2.052c0,2.771-0.972,4.499-3.132,5.184
		c2.304,0.684,3.168,2.556,3.168,5.255v3.924c0,1.115,0.036,2.159,0.504,3.023h-2.844c-0.324-0.72-0.468-1.368-0.468-3.06v-3.96
		c0-2.843-1.332-3.743-3.672-3.743h-1.979V34.5h-2.808V9.303H59.074z M58.354,21.182c2.232,0,3.564-0.72,3.564-3.455v-2.412
		c0-2.268-0.828-3.456-2.916-3.456h-2.735v9.323H58.354z"/>
	<path opacity="0.5" fill="#FFFFFF" d="M67.426,15.387c0-3.852,1.908-6.336,5.759-6.336c3.888,0,5.795,2.484,5.795,6.336v13.03
		c0,3.815-1.908,6.335-5.795,6.335c-3.851,0-5.759-2.52-5.759-6.335V15.387z M70.198,28.561c0,2.304,0.972,3.636,2.987,3.636
		c2.052,0,2.988-1.332,2.988-3.636V15.242c0-2.268-0.936-3.636-2.988-3.636c-2.016,0-2.987,1.368-2.987,3.636V28.561z"/>
	<path opacity="0.5" fill="#FFFFFF" d="M84.13,34.5h-2.52V9.303h3.563l5.832,18.214V9.303h2.483V34.5h-2.916L84.13,14.127V34.5z"/>
	<path opacity="0.5" fill="#FFFFFF" d="M105.657,34.464h-2.7l-4.175-20.05V34.5h-2.448V9.303h3.923l4.14,20.122l3.996-20.122h3.923
		V34.5h-2.664V14.234L105.657,34.464z"/>
	<path opacity="0.5" fill="#FFFFFF" d="M124.161,20.462v2.52h-6.155v8.963h7.559V34.5h-10.367V9.303h10.367v2.556h-7.559v8.604
		H124.161z"/>
	<path opacity="0.5" fill="#FFFFFF" d="M130.641,34.5h-2.52V9.303h3.563l5.832,18.214V9.303H140V34.5h-2.916l-6.443-20.373V34.5z"/>
	<path opacity="0.5" fill="#FFFFFF" d="M146.552,34.5V11.858h-4.643V9.303h12.094v2.556h-4.643V34.5H146.552z"/>
	<path opacity="0.5" fill="#FFFFFF" d="M165.564,28.014l-1.242,6.486h-3.313l6.164-32.204h5.199l6.164,32.204h-3.588l-1.242-6.486
		H165.564z M166.023,24.931h7.178l-3.635-18.586L166.023,24.931z"/>
	<path opacity="0.5" fill="#FFFFFF" d="M186.556,9.303c3.959,0,5.615,2.017,5.615,5.76v2.052c0,2.771-0.973,4.499-3.131,5.184
		c2.303,0.684,3.166,2.556,3.166,5.255v3.924c0,1.115,0.037,2.159,0.504,3.023h-2.844c-0.322-0.72-0.467-1.368-0.467-3.06v-3.96
		c0-2.843-1.332-3.743-3.672-3.743h-1.979V34.5h-2.808V9.303H186.556z M185.835,21.182c2.232,0,3.564-0.72,3.564-3.455v-2.412
		c0-2.268-0.828-3.456-2.916-3.456h-2.735v9.323H185.835z"/>
	<path opacity="0.5" fill="#FFFFFF" d="M198.796,34.5V11.858h-4.645V9.303h12.096v2.556h-4.645V34.5H198.796z"/>
	<path opacity="0.5" fill="#FFFFFF" d="M211,9.303V34.5h-2.807V9.303H211z"/>
	<path opacity="0.5" fill="#FFFFFF" d="M224.787,15.351v0.684h-2.664v-0.828c0-2.268-0.863-3.6-2.879-3.6s-2.879,1.332-2.879,3.564
		c0,5.65,8.459,6.19,8.459,13.282c0,3.815-1.836,6.299-5.688,6.299s-5.652-2.483-5.652-6.299v-1.44h2.629v1.584
		c0,2.268,0.936,3.6,2.951,3.6s2.951-1.332,2.951-3.6c0-5.615-8.424-6.155-8.424-13.246c0-3.888,1.801-6.3,5.58-6.3
		C222.988,9.051,224.787,11.535,224.787,15.351z"/>
	<path opacity="0.5" fill="#FFFFFF" d="M230.943,34.5V11.858H226.3V9.303h12.094v2.556h-4.643V34.5H230.943z"/>
</g>
<g>
</g>
<g>
</g>
<g>
</g>
<g>
</g>
<g>
</g>
<g>
</g>
<g>
</g>
<g>
</g>
<g>
</g>
<g>
</g>
<g>
</g>
<g>
</g>
<g>
</g>
<g>
</g>
<g>
</g>
</svg>
