<?xml version="1.0" encoding="utf-8"?>
<!-- Generator: Adobe Illustrator 16.0.0, SVG Export Plug-In . SVG Version: 6.00 Build 0)  -->
<!DOCTYPE svg PUBLIC "-//W3C//DTD SVG 1.1//EN" "http://www.w3.org/Graphics/SVG/1.1/DTD/svg11.dtd">
<svg version="1.1" id="Layer_1" xmlns="http://www.w3.org/2000/svg" xmlns:xlink="http://www.w3.org/1999/xlink" x="0px" y="0px"
	 width="487.5px" height="114px" viewBox="0 0 487.5 114" enable-background="new 0 0 487.5 114" xml:space="preserve">
<g>
	<path fill="none" stroke="#3FA9F5" stroke-width="5" stroke-miterlimit="10" d="M420,87"/>
	<g>
		<path fill="none" stroke="#02B3E4" stroke-width="5" stroke-miterlimit="10" d="M120.5,7.5h-37
			c-3.127,3.071-9.379,9.215-9.379,9.215L73.75,39.761c5,5.364,12.629,9.012,15.332,9.772c5.278,1.481,22.168,5.217,25.556,8.211
			c3.324,2.938,6.362,7.592,6.362,12.068c0,6.063,0,8.125,0,12.188c0,0,0.125,1.875-2.375,5.625s-5.958,4.875-5.958,4.875H58.5
			L11.667,54.748"/>
		<line fill="none" stroke="#02B3E4" stroke-width="5" stroke-miterlimit="10" x1="10" y1="5" x2="10" y2="95"/>
	</g>
	<path fill="none" stroke="#02B3E4" stroke-width="5" stroke-miterlimit="10" d="M210.5,92.5"/>
	<path fill="none" stroke="#02B3E4" stroke-width="5" stroke-miterlimit="10" d="M149,8v84.5h30.5
		c-0.451,0.5,11.496-3.976,17.543-10.429c6.691-7.14,8.957-15.612,8.957-16.794c0-5.606,0.826-41.388-0.513-42.829
		c-8.641-9.296-8.739-8.783-13.987-14.43L149,8z"/>
	<line fill="none" stroke="#02B3E4" stroke-width="5" stroke-miterlimit="10" x1="205.5" y1="51.5" x2="236.5" y2="51.5"/>
	<polyline fill="none" stroke="#02B3E4" stroke-width="5" stroke-miterlimit="10" points="255.5,7.5 213,7.5 213,93 	"/>
	<line fill="none" stroke="#02B3E4" stroke-width="5" stroke-miterlimit="10" x1="321" y1="5" x2="321" y2="95"/>
	<path fill="none" stroke="#02B3E4" stroke-width="5" stroke-miterlimit="10" d="M405.667,23.667c0-5.459-5.7-8.666-6.18-9.088
		c-3.544-3.14-7.636-7.078-12.987-7.078l0,0h-31.25l-12.648,6.848L334,26v45.5l10.373,11.615L353.5,92.5h42L408,74V59.5h-34.5"/>
	<g>
		<line fill="none" stroke="#02B3E4" stroke-width="5" stroke-miterlimit="10" x1="420" y1="5" x2="420" y2="95"/>
		<line fill="none" stroke="#02B3E4" stroke-width="5" stroke-miterlimit="10" x1="482" y1="95" x2="482" y2="5"/>
		<polygon fill="#02B3E4" points="479.442,94.967 418.498,7.951 422.558,5.033 483.502,92.049 		"/>
	</g>
	<polyline fill="#02B3E4" points="64.5,4.458 64.642,11.286 11.449,58.21 8.144,54.499 	"/>
	<line fill="none" stroke="#02B3E4" stroke-width="4" stroke-miterlimit="10" x1="2.5" y1="107" x2="484.5" y2="107"/>
</g>
<path fill="none" stroke="#02B3E4" stroke-width="5" stroke-miterlimit="10" d="M306.5,7.5h-37
	c-3.127,3.071-9.379,9.215-9.379,9.215l-0.371,23.046c5,5.364,13.629,9.012,16.332,9.772c5.278,1.481,22.168,5.217,25.556,8.211
	c3.324,2.938,6.362,7.592,6.362,12.068c0,6.063,0,8.125,0,12.188c0,0,0.125,1.875-2.375,5.625s-5.958,4.875-5.958,4.875H210.5"/>
<g>
</g>
<g>
</g>
<g>
</g>
<g>
</g>
<g>
</g>
<g>
</g>
<g>
</g>
<g>
</g>
<g>
</g>
<g>
</g>
<g>
</g>
<g>
</g>
<g>
</g>
<g>
</g>
<g>
</g>
</svg>
