<?xml version="1.0" encoding="utf-8"?>
<!-- Generator: Adobe Illustrator 16.0.0, SVG Export Plug-In . SVG Version: 6.00 Build 0)  -->
<!DOCTYPE svg PUBLIC "-//W3C//DTD SVG 1.1//EN" "http://www.w3.org/Graphics/SVG/1.1/DTD/svg11.dtd">
<svg version="1.1" id="Layer_1" xmlns="http://www.w3.org/2000/svg" xmlns:xlink="http://www.w3.org/1999/xlink" x="0px" y="0px"
	 width="468.833px" height="48.167px" viewBox="0 0 468.833 48.167" enable-background="new 0 0 468.833 48.167"
	 xml:space="preserve">
<g display="none">
	<path display="inline" fill="#FFFFFF" d="M119.167,29.492l-1.972,3.712v12.47h-6.38V5.075h6.38v17.689l8.352-17.689h6.38
		l-8.874,18.095l8.874,22.504h-6.554L119.167,29.492z"/>
	<path display="inline" fill="#FFFFFF" d="M139.371,34.537l-6.673-22.466h5.521l4.032,15.313l4.033-15.313h5.041l-6.673,22.466
		v11.137h-5.28V34.537z"/>
	<path display="inline" fill="#FFFFFF" d="M153.434,12.071h5.28v28.802h8.688v4.801h-13.969V12.071z"/>
	<path display="inline" fill="#FFFFFF" d="M174.986,26.232h7.249v4.8h-7.249v9.841h9.121v4.801h-14.401V12.071h14.401v4.8h-9.121
		V26.232z"/>
	<path display="inline" fill="#FFFFFF" d="M203.792,4.61c6.206,0,9.396,3.712,9.396,10.208v1.276h-6.032v-1.683
		c0-2.899-1.16-4.002-3.19-4.002c-2.03,0-3.19,1.103-3.19,4.002c0,8.353,12.47,9.918,12.47,21.518
		c0,6.496-3.248,10.208-9.512,10.208s-9.512-3.712-9.512-10.208v-2.493h6.032v2.899c0,2.9,1.276,3.944,3.306,3.944
		c2.03,0,3.306-1.044,3.306-3.944c0-8.352-12.47-9.918-12.47-21.518C194.396,8.322,197.586,4.61,203.792,4.61z"/>
	<path display="inline" fill="#FFFFFF" d="M233.59,45.673h-5.329l-0.912-6.097h-6.48l-0.912,6.097h-4.849l5.376-33.603h7.729
		L233.59,45.673z M221.541,35.016h5.088l-2.544-16.993L221.541,35.016z"/>
	<path display="inline" fill="#FFFFFF" d="M247.077,45.673c-0.288-0.864-0.48-1.393-0.48-4.128v-5.281
		c0-3.12-1.056-4.272-3.456-4.272h-1.824v13.682h-5.28V12.071h7.968c5.473,0,7.825,2.544,7.825,7.729v2.64
		c0,3.457-1.104,5.713-3.456,6.817c2.64,1.104,3.505,3.647,3.505,7.152v5.185c0,1.632,0.047,2.832,0.575,4.08H247.077z
		 M241.317,16.871v10.321h2.064c1.968,0,3.168-0.864,3.168-3.553v-3.312c0-2.4-0.816-3.457-2.688-3.457H241.317z"/>
	<path display="inline" fill="#FFFFFF" d="M263.205,39.481l4.033-27.41h4.848l-5.185,33.603h-7.872l-5.186-33.603h5.329
		L263.205,39.481z"/>
	<path display="inline" fill="#FFFFFF" d="M290.421,45.673h-5.328l-0.912-6.097h-6.48l-0.912,6.097h-4.849l5.376-33.603h7.729
		L290.421,45.673z M278.373,35.016h5.088l-2.543-16.993L278.373,35.016z"/>
	<path display="inline" fill="#FFFFFF" d="M299.972,11.686c5.137,0,7.777,3.072,7.777,8.449v1.056h-4.993v-1.392
		c0-2.4-0.96-3.313-2.64-3.313c-1.681,0-2.641,0.912-2.641,3.313c0,6.912,10.321,8.208,10.321,17.81
		c0,5.376-2.688,8.448-7.873,8.448s-7.872-3.072-7.872-8.448v-2.064h4.992v2.4c0,2.4,1.056,3.264,2.736,3.264
		c1.68,0,2.736-0.863,2.736-3.264c0-6.913-10.321-8.209-10.321-17.81C292.196,14.758,294.836,11.686,299.972,11.686z"/>
</g>
<g>
	<path fill="#FFFFFF" d="M10.672,26.485L8.7,30.197v12.47H2.32V2.068H8.7v17.689l8.352-17.689h6.38l-8.874,18.095l8.874,22.504
		h-6.554L10.672,26.485z"/>
	<path fill="#FFFFFF" d="M30.876,31.53L24.203,9.064h5.521l4.032,15.313l4.033-15.313h5.041L36.156,31.53v11.137h-5.28V31.53z"/>
	<path fill="#FFFFFF" d="M44.939,9.064h5.28v28.802h8.688v4.801H44.939V9.064z"/>
	<path fill="#FFFFFF" d="M66.491,23.225h7.249v4.8h-7.249v9.841h9.121v4.801H61.211V9.064h14.401v4.8h-9.121V23.225z"/>
	<path fill="#FFFFFF" d="M95.298,1.603c6.206,0,9.396,3.712,9.396,10.208v1.276h-6.032v-1.683c0-2.899-1.16-4.002-3.19-4.002
		c-2.03,0-3.19,1.103-3.19,4.002c0,8.353,12.47,9.918,12.47,21.518c0,6.496-3.248,10.208-9.512,10.208s-9.512-3.712-9.512-10.208
		v-2.493h6.032v2.899c0,2.9,1.276,3.944,3.306,3.944c2.03,0,3.306-1.044,3.306-3.944c0-8.352-12.47-9.918-12.47-21.518
		C85.902,5.315,89.092,1.603,95.298,1.603z"/>
	<path fill="#FFFFFF" d="M125.096,42.667h-5.329l-0.912-6.097h-6.48l-0.912,6.097h-4.849l5.376-33.603h7.729L125.096,42.667z
		 M113.046,32.009h5.088l-2.544-16.993L113.046,32.009z"/>
	<path fill="#FFFFFF" d="M138.583,42.667c-0.288-0.864-0.48-1.393-0.48-4.128v-5.281c0-3.12-1.056-4.272-3.456-4.272h-1.824v13.682
		h-5.28V9.064h7.968c5.473,0,7.825,2.544,7.825,7.729v2.64c0,3.457-1.104,5.713-3.456,6.817c2.64,1.104,3.504,3.647,3.504,7.152
		v5.185c0,1.632,0.048,2.832,0.576,4.08H138.583z M132.822,13.864v10.321h2.064c1.968,0,3.168-0.864,3.168-3.553v-3.312
		c0-2.4-0.816-3.457-2.688-3.457H132.822z"/>
	<path fill="#FFFFFF" d="M154.71,36.474l4.033-27.41h4.848l-5.185,33.603h-7.873l-5.185-33.603h5.329L154.71,36.474z"/>
	<path fill="#FFFFFF" d="M181.927,42.667h-5.329l-0.912-6.097h-6.48l-0.912,6.097h-4.849l5.376-33.603h7.729L181.927,42.667z
		 M169.878,32.009h5.088l-2.544-16.993L169.878,32.009z"/>
	<path fill="#FFFFFF" d="M191.478,8.679c5.137,0,7.777,3.072,7.777,8.449v1.056h-4.993v-1.392c0-2.4-0.96-3.313-2.64-3.313
		c-1.681,0-2.641,0.912-2.641,3.313c0,6.912,10.321,8.208,10.321,17.81c0,5.376-2.688,8.448-7.873,8.448s-7.873-3.072-7.873-8.448
		v-2.064h4.993v2.4c0,2.4,1.056,3.264,2.736,3.264c1.68,0,2.736-0.863,2.736-3.264c0-6.913-10.321-8.209-10.321-17.81
		C183.701,11.751,186.342,8.679,191.478,8.679z"/>
	<path opacity="0.5" fill="#FFFFFF" d="M215.836,4.49v42.553h-2.304V4.49H215.836z"/>
	<path opacity="0.5" fill="#FFFFFF" d="M242.008,23.724v3.221h-7.867V38.4h9.661v3.267h-13.25V9.462h13.25v3.267h-9.661v10.995
		H242.008z"/>
	<path opacity="0.5" fill="#FFFFFF" d="M249.195,41.667h-2.52V16.469h3.563l5.831,18.214V16.469h2.484v25.197h-2.916l-6.443-20.373
		V41.667z"/>
	<path opacity="0.5" fill="#FFFFFF" d="M263.558,16.469l4.104,21.922l4.068-21.922h2.592l-4.717,25.197h-4.139l-4.752-25.197
		H263.558z"/>
	<path opacity="0.5" fill="#FFFFFF" d="M279.291,16.469v25.197h-2.807V16.469H279.291z"/>
	<path opacity="0.5" fill="#FFFFFF" d="M287.787,16.469c3.959,0,5.615,2.017,5.615,5.76v2.052c0,2.771-0.973,4.499-3.131,5.184
		c2.303,0.684,3.166,2.556,3.166,5.255v3.924c0,1.115,0.037,2.159,0.504,3.023h-2.844c-0.322-0.72-0.467-1.368-0.467-3.06v-3.96
		c0-2.843-1.332-3.743-3.672-3.743h-1.98v10.763h-2.807V16.469H287.787z M287.066,28.348c2.232,0,3.564-0.72,3.564-3.455v-2.412
		c0-2.268-0.828-3.456-2.916-3.456h-2.736v9.323H287.066z"/>
	<path opacity="0.5" fill="#FFFFFF" d="M296.138,22.553c0-3.852,1.908-6.336,5.76-6.336c3.889,0,5.795,2.484,5.795,6.336v13.03
		c0,3.815-1.906,6.335-5.795,6.335c-3.852,0-5.76-2.52-5.76-6.335V22.553z M298.91,35.727c0,2.304,0.973,3.636,2.988,3.636
		c2.053,0,2.988-1.332,2.988-3.636V22.409c0-2.268-0.936-3.636-2.988-3.636c-2.016,0-2.988,1.368-2.988,3.636V35.727z"/>
	<path opacity="0.5" fill="#FFFFFF" d="M312.843,41.667h-2.52V16.469h3.563l5.832,18.214V16.469h2.482v25.197h-2.916l-6.441-20.373
		V41.667z"/>
	<path opacity="0.5" fill="#FFFFFF" d="M334.369,41.63h-2.699l-4.176-20.05v20.086h-2.447V16.469h3.924l4.139,20.122l3.996-20.122
		h3.924v25.197h-2.664V21.401L334.369,41.63z"/>
	<path opacity="0.5" fill="#FFFFFF" d="M352.873,27.628v2.52h-6.154v8.963h7.559v2.556H343.91V16.469h10.367v2.556h-7.559v8.604
		H352.873z"/>
	<path opacity="0.5" fill="#FFFFFF" d="M359.353,41.667h-2.52V16.469h3.564l5.83,18.214V16.469h2.484v25.197h-2.916l-6.443-20.373
		V41.667z"/>
	<path opacity="0.5" fill="#FFFFFF" d="M375.265,41.667V19.025h-4.645v-2.556h12.096v2.556h-4.645v22.642H375.265z"/>
	<path opacity="0.5" fill="#FFFFFF" d="M394.277,35.18l-1.242,6.486h-3.313l6.164-32.204h5.199l6.164,32.204h-3.588l-1.242-6.486
		H394.277z M394.736,32.097h7.178l-3.635-18.586L394.736,32.097z"/>
	<path opacity="0.5" fill="#FFFFFF" d="M415.267,16.469c3.961,0,5.615,2.017,5.615,5.76v2.052c0,2.771-0.971,4.499-3.131,5.184
		c2.305,0.684,3.168,2.556,3.168,5.255v3.924c0,1.115,0.035,2.159,0.504,3.023h-2.844c-0.324-0.72-0.469-1.368-0.469-3.06v-3.96
		c0-2.843-1.33-3.743-3.67-3.743h-1.98v10.763h-2.809V16.469H415.267z M414.548,28.348c2.232,0,3.563-0.72,3.563-3.455v-2.412
		c0-2.268-0.826-3.456-2.914-3.456h-2.736v9.323H414.548z"/>
	<path opacity="0.5" fill="#FFFFFF" d="M427.509,41.667V19.025h-4.645v-2.556h12.096v2.556h-4.645v22.642H427.509z"/>
	<path opacity="0.5" fill="#FFFFFF" d="M439.712,16.469v25.197h-2.809V16.469H439.712z"/>
	<path opacity="0.5" fill="#FFFFFF" d="M453.5,22.517v0.684h-2.664v-0.828c0-2.268-0.863-3.6-2.881-3.6
		c-2.016,0-2.879,1.332-2.879,3.564c0,5.65,8.459,6.19,8.459,13.282c0,3.815-1.836,6.299-5.688,6.299s-5.65-2.483-5.65-6.299v-1.44
		h2.627v1.584c0,2.268,0.936,3.6,2.951,3.6s2.953-1.332,2.953-3.6c0-5.615-8.424-6.155-8.424-13.246c0-3.888,1.799-6.3,5.58-6.3
		C451.699,16.217,453.5,18.702,453.5,22.517z"/>
	<path opacity="0.5" fill="#FFFFFF" d="M459.656,41.667V19.025h-4.645v-2.556h12.096v2.556h-4.645v22.642H459.656z"/>
</g>
<g>
</g>
<g>
</g>
<g>
</g>
<g>
</g>
<g>
</g>
<g>
</g>
<g>
</g>
<g>
</g>
<g>
</g>
<g>
</g>
<g>
</g>
<g>
</g>
<g>
</g>
<g>
</g>
<g>
</g>
</svg>
